<svg xmlns="http://www.w3.org/2000/svg" xmlns:html="http://www.w3.org/1999/xhtml" xmlns:xlink="http://www.w3.org/1999/xlink" version="1.1"><style xmlns="http://www.w3.org/1999/xhtml">
    .blocklyText {
        fill: #fff;
        font-family: "Helvetica Neue", Helvetica, sans-serif;
        font-size: 12pt;
        font-weight: 500;
    }
    .blocklyNonEditableText&gt;text, .blocklyEditableText&gt;text {
        fill: #575E75;
    }
    .blocklyDropdownText {
        fill: #fff !important;
    }
    </style><g data-id="|Z5qX2}Q{26o^nEu1=EE" class="blocklyDraggable blocklySelected" data-shapes="c-block c-1 hat" transform="translate(0,0) "><path class="blocklyPath blocklyBlockBackground" stroke="#FF3355" fill="#FF6680" fill-opacity="1" d="m 0, 0 c0,-7.1 3.7,-13.3 9.3,-16.9c1.7,-7.5 5.4,-13.2 7.6,-14.2c2.6,-1.3 10,6 14.6,11.1h33c4.6,-5.1 11.9,-12.4 14.6,-11.1c1.9,0.9 4.9,5.2 6.8,11.1c2.6,0,5.2,0,7.8,0 H 139.18981552124023 a 20,20 0 0,1 20,20 v -2 v 60  a 6,6 0 0,1 -6,6 H 50   h -3.25c -2,0 -3,0.75 -4,1.5 l -3,3 c -1,0.75 -2,1.5 -4,1.5 h -12 c -2,0 -3,-0.75 -4,-1.5 l -3,-3c -1,-0.75 -2,-1.5 -4,-1.5 H 6 a 6,6 0 0,1 -6,-6 z"/><g data-id="*nuxQ?i`_]8{^*|ctsT4" data-shapes="stack" transform="translate(59.61111068725586,0)"><path class="blocklyPath blocklyBlockBackground" stroke="#FF3355" fill="#FF4D6A" fill-opacity="1" d="m 0,6 A 6,6 0 0,1 6,0 H 12 c 2,0 3,0.75 4,1.5 l 3,3 c 1,0.75 2,1.5 4,1.5 h 12 c 2,0 3,-0.75 4,-1.5 l 3,-3c 1,-0.75 2,-1.5 4,-1.5 H 85.57870483398438 a 6,6 0 0,1 6,6 v 36  a 6,6 0 0,1 -6,6 H 50   h -3.25c -2,0 -3,0.75 -4,1.5 l -3,3 c -1,0.75 -2,1.5 -4,1.5 h -12 c -2,0 -3,-0.75 -4,-1.5 l -3,-3c -1,-0.75 -2,-1.5 -4,-1.5 H 6 a 6,6 0 0,1 -6,-6 z"/><text class="blocklyText" y="2" text-anchor="middle" dominant-baseline="middle" dy="0" x="37.78935241699219" transform="translate(8, 24) ">Temporary</text><g><g/></g></g><text class="blocklyText" y="2" text-anchor="middle" dominant-baseline="middle" dy="0" x="21.80555534362793" transform="translate(8, 24) ">define</text><g><g fill="#000000" style="transform: translate(1.44202px, 1.90259px);"><path d="M25.2-1.1c0.1,0,0.2,0,0.2,0l8.3-2.1l-7-4.8c-0.5-0.3-1.1-0.2-1.4,0.3s-0.2,1.1,0.3,1.4L29-4.1l-4,1c-0.5,0.1-0.9,0.7-0.7,1.2C24.3-1.4,24.7-1.1,25.2-1.1z" fill-opacity="0"/><path d="M62.4-1.1c-0.1,0-0.2,0-0.2,0l-8.3-2.1l7-4.8c0.5-0.3,1.1-0.2,1.4,0.3s0.2,1.1-0.3,1.4l-3.4,2.3l4,1c0.5,0.1,0.9,0.7,0.7,1.2C63.2-1.4,62.8-1.1,62.4-1.1z" fill-opacity="0"/><circle cx="59.2" cy="-3.3" r="3.4" fill-opacity="0.6"/><circle cx="29.1" cy="-3.3" r="3.4" fill-opacity="0.6"/><path d="M45.6,0.1c-0.9,0-1.7-0.3-2.3-0.9c-0.6,0.6-1.3,0.9-2.2,0.9c-0.9,0-1.8-0.3-2.3-0.9c-1-1.1-1.1-2.6-1.1-2.8c0-0.5,0.5-1,1-1l0,0c0.6,0,1,0.5,1,1c0,0.4,0.1,1.7,1.4,1.7c0.5,0,0.7-0.2,0.8-0.3c0.3-0.3,0.4-1,0.4-1.3c0-0.1,0-0.1,0-0.2c0-0.5,0.5-1,1-1l0,0c0.5,0,1,0.4,1,1c0,0,0,0.1,0,0.2c0,0.3,0.1,0.9,0.4,1.2C44.8-2.2,45-2,45.5-2s0.7-0.2,0.8-0.3c0.3-0.4,0.4-1.1,0.3-1.3c0-0.5,0.4-1,0.9-1.1c0.5,0,1,0.4,1.1,0.9c0,0.2,0.1,1.8-0.8,2.8C47.5-0.4,46.8,0.1,45.6,0.1z" fill-opacity="0.6"/></g><path d="M73.1-15.6c1.7-4.2,4.5-9.1,5.8-8.5c1.6,0.8,5.4,7.9,5,15.4c0,0.6-0.7,0.7-1.1,0.5c-3-1.6-6.4-2.8-8.6-3.6C72.8-12.3,72.4-13.7,73.1-15.6z" fill="#FFD5E6"/><path d="M22.4-15.6c-1.7-4.2-4.5-9.1-5.8-8.5c-1.6,0.8-5.4,7.9-5,15.4c0,0.6,0.7,0.7,1.1,0.5c3-1.6,6.4-2.8,8.6-3.6C22.8-12.3,23.2-13.7,22.4-15.6z" fill="#FFD5E6"/></g><g data-id="nyBwH%;N6yVyiEd^Dp16" class="blocklyDraggable" data-shapes="stack" transform="translate(0,63.99999999999994)"><path class="blocklyPath blocklyBlockBackground" stroke="#3aa8a4" fill="#29beb8" fill-opacity="1" d="m 0,6 A 6,6 0 0,1 6,0 H 12 c 2,0 3,0.75 4,1.5 l 3,3 c 1,0.75 2,1.5 4,1.5 h 12 c 2,0 3,-0.75 4,-1.5 l 3,-3c 1,-0.75 2,-1.5 4,-1.5 H 90 a 6,6 0 0,1 6,6 v 36  a 6,6 0 0,1 -6,6 H 50   h -3.25c -2,0 -3,0.75 -4,1.5 l -3,3 c -1,0.75 -2,1.5 -4,1.5 h -12 c -2,0 -3,-0.75 -4,-1.5 l -3,-3c -1,-0.75 -2,-1.5 -4,-1.5 H 6 a 6,6 0 0,1 -6,-6 z"/><text class="blocklyText" y="2" text-anchor="middle" dominant-baseline="middle" dy="0" x="10.682869911193848" transform="translate(8, 24) ">logo</text><path class="blocklyPath" style="visibility: hidden" d="" fill="#3aa8a4"/><g><g/></g></g></g></svg>